HIERARCHY
ROOT hip
{
	OFFSET 0.000000 0.000000 0.000000
	CHANNELS 6 Xposition Yposition Zposition Xrotation Zrotation Yrotation 
	JOINT abdomen
	{
		OFFSET 0.000000 3.422050 0.000000
		CHANNELS 3 Xrotation Zrotation Yrotation 
		JOINT chest
		{
			OFFSET 0.000000 8.486693 -0.684411
			CHANNELS 3 Xrotation Zrotation Yrotation 
			JOINT neck
			{
				OFFSET 0.000000 10.266162 -0.273764
				CHANNELS 3 Xrotation Zrotation Yrotation 
				JOINT head
				{
					OFFSET 0.000000 3.148285 0.000000
					CHANNELS 3 Xrotation Zrotation Yrotation 
					End Site
					{
						OFFSET 0.000000 3.148289 0.000000
					}
				}
			}
			JOINT lCollar
			{
				OFFSET 3.422053 6.707223 -0.821293
				CHANNELS 3 Yrotation Zrotation Xrotation 
				JOINT lShldr
				{
					OFFSET 3.285171 0.000000 0.000000
					CHANNELS 3 Zrotation Yrotation Xrotation 
					JOINT lForeArm
					{
						OFFSET 10.129278 0.000000 0.000000
						CHANNELS 3 Yrotation Zrotation Xrotation 
						JOINT lHand
						{
							OFFSET 8.486692 0.000000 0.000000
							CHANNELS 3 Zrotation Yrotation Xrotation 
							End Site
							{
								OFFSET 4.106464 0.000000 0.000000
							}
						}
					}
				}
			}
			JOINT rCollar
			{
				OFFSET -3.558935 6.707223 -0.821293
				CHANNELS 3 Yrotation Zrotation Xrotation 
				JOINT rShldr
				{
					OFFSET -3.148289 0.000000 0.000000
					CHANNELS 3 Zrotation Yrotation Xrotation 
					JOINT rForeArm
					{
						OFFSET -10.266159 0.000000 0.000000
						CHANNELS 3 Yrotation Zrotation Xrotation 
						JOINT rHand
						{
							OFFSET -8.349810 0.000000 0.000000
							CHANNELS 3 Zrotation Yrotation Xrotation 
							End Site
							{
								OFFSET -4.106464 0.000000 0.000000
							}
						}
					}
				}
			}
		}
	}
	JOINT lThigh
	{
		OFFSET 5.338403 -1.642589 1.368821
		CHANNELS 3 Xrotation Zrotation Yrotation 
		JOINT lShin
		{
			OFFSET -2.053232 -20.121670 0.000000
			CHANNELS 3 Xrotation Zrotation Yrotation 
			JOINT lFoot
			{
				OFFSET 0.000000 -19.300380 -1.231939
				CHANNELS 3 Xrotation Yrotation Zrotation 
				End Site
				{
					OFFSET 0.000000 -2.463878 4.653993
				}
			}
		}
	}
	JOINT rThigh
	{
		OFFSET -5.338403 -1.642589 1.368821
		CHANNELS 3 Xrotation Zrotation Yrotation 
		JOINT rShin
		{
			OFFSET 2.053232 -20.121670 0.000000
			CHANNELS 3 Xrotation Zrotation Yrotation 
			JOINT rFoot
			{
				OFFSET 0.000000 -19.300380 -1.231939
				CHANNELS 3 Xrotation Yrotation Zrotation 
				End Site
				{
					OFFSET 0.000000 -2.463878 4.653993
				}
			}
		}
	}
}
MOTION
Frames: 18
Frame Time: 0.033325
-12.138111 13.620281 -0.561709 0.000000 0.000000 0.000000 14.645524 -0.029608 -0.030248 25.094334 -0.106002 -0.046879 2.798827 2.807497 -0.177326 3.933575 0.000000 0.000000 -37.023296 -29.744200 -9.612916 -21.663065 -28.914759 7.431260 -11.130760 -6.365574 -0.027932 19.497721 -0.292930 0.001118 37.800072 28.994776 -10.093474 21.372126 28.921804 7.438811 7.425784 8.581702 -0.162581 -22.499636 0.290791 0.000991 -51.053371 6.104117 -0.001257 145.193680 5.531421 -0.735253 56.309616 8.205308 3.192663 -51.053402 -6.108787 -0.000392 145.193466 -5.529124 0.730874 56.309589 -8.210064 -3.194125 
-12.138111 13.620281 -0.561709 0.000000 0.000000 0.000000 14.645524 -0.029608 -0.030248 25.094334 -0.106002 -0.046879 2.487643 2.494785 -0.164372 3.495984 0.000000 0.000000 -37.023296 -29.744200 -9.612916 -21.663063 -28.914759 7.431259 -11.130760 -6.365574 -0.027932 19.497721 -0.292930 0.001118 37.800072 28.994776 -10.093474 21.372126 28.921804 7.438811 7.425784 8.581702 -0.162581 -22.499636 0.290791 0.000991 -51.053371 6.104117 -0.001257 145.193680 5.531421 -0.735253 56.309616 8.205308 3.192663 -51.053402 -6.108787 -0.000392 145.193466 -5.529124 0.730874 56.309589 -8.210064 -3.194125 
-12.138111 13.620281 -0.561709 0.000000 0.000000 0.000000 14.645524 -0.029608 -0.030248 25.094334 -0.106002 -0.046879 2.176529 2.182221 -0.149725 3.058496 0.000000 0.000000 -37.023296 -29.744200 -9.612916 -21.663063 -28.914759 7.431259 -11.130760 -6.365574 -0.027932 19.497721 -0.292930 0.001118 37.800072 28.994776 -10.093474 21.372126 28.921804 7.438811 7.425784 8.581702 -0.162581 -22.499636 0.290791 0.000991 -51.053371 6.104117 -0.001257 145.193680 5.531421 -0.735253 56.309616 8.205308 3.192663 -51.053402 -6.108787 -0.000392 145.193466 -5.529124 0.730874 56.309589 -8.210064 -3.194125 
-12.138111 13.620281 -0.561709 0.000000 0.000000 0.000000 14.645524 -0.029608 -0.030248 25.094334 -0.106002 -0.046879 1.865480 1.869826 -0.133388 2.621122 0.000000 0.000000 -37.023296 -29.744200 -9.612916 -21.663063 -28.914759 7.431259 -11.130760 -6.365574 -0.027932 19.497721 -0.292930 0.001118 37.800072 28.994776 -10.093474 21.372126 28.921804 7.438811 7.425784 8.581702 -0.162581 -22.499636 0.290791 0.000991 -51.053371 6.104117 -0.001257 145.193680 5.531421 -0.735253 56.309616 8.205308 3.192663 -51.053402 -6.108787 -0.000392 145.193466 -5.529124 0.730874 56.309589 -8.210064 -3.194125 
-12.138111 13.620281 -0.561709 0.000000 0.000000 0.000000 14.645524 -0.029608 -0.030248 25.094334 -0.106002 -0.046879 1.554484 1.557616 -0.115363 2.183876 0.000000 0.000000 -37.023296 -29.744200 -9.612916 -21.663063 -28.914759 7.431259 -11.130760 -6.365574 -0.027932 19.497721 -0.292930 0.001118 37.800072 28.994776 -10.093474 21.372126 28.921804 7.438811 7.425784 8.581702 -0.162581 -22.499636 0.290791 0.000991 -51.053371 6.104117 -0.001257 145.193680 5.531421 -0.735253 56.309616 8.205308 3.192663 -51.053402 -6.108787 -0.000392 145.193466 -5.529124 0.730874 56.309593 -8.210065 -3.194125 
-12.138111 13.620281 -0.561709 0.000000 0.000000 0.000000 14.645524 -0.029608 -0.030248 25.094334 -0.106002 -0.046879 1.243534 1.245611 -0.095652 1.746769 0.000000 0.000000 -37.023296 -29.744200 -9.612916 -21.663063 -28.914759 7.431259 -11.130760 -6.365574 -0.027932 19.497723 -0.292930 0.001118 37.800072 28.994776 -10.093474 21.372126 28.921804 7.438811 7.425784 8.581702 -0.162581 -22.499636 0.290791 0.000991 -51.053371 6.104117 -0.001257 145.193680 5.531421 -0.735253 56.309616 8.205308 3.192663 -51.053402 -6.108787 -0.000392 145.193466 -5.529124 0.730874 56.309586 -8.210064 -3.194125 
-12.138111 13.620281 -0.561709 0.000000 0.000000 0.000000 14.645524 -0.029608 -0.030248 25.094334 -0.106002 -0.046879 0.932620 0.933829 -0.074258 1.309816 0.000000 0.000000 -37.023296 -29.744200 -9.612916 -21.663063 -28.914759 7.431259 -11.130760 -6.365574 -0.027932 19.497721 -0.292930 0.001118 37.800072 28.994776 -10.093474 21.372126 28.921804 7.438811 7.425784 8.581702 -0.162581 -22.499636 0.290791 0.000991 -51.053371 6.104117 -0.001257 145.193680 5.531421 -0.735253 56.309616 8.205308 3.192663 -51.053402 -6.108787 -0.000392 145.193466 -5.529124 0.730874 56.309589 -8.210064 -3.194125 
-12.138111 13.620281 -0.561709 0.000000 0.000000 0.000000 14.645524 -0.029608 -0.030248 25.094334 -0.106002 -0.046879 0.621732 0.622287 -0.051183 0.873028 0.000000 0.000000 -37.023296 -29.744200 -9.612916 -21.663063 -28.914759 7.431259 -11.130760 -6.365574 -0.027932 19.497721 -0.292930 0.001118 37.800072 28.994776 -10.093474 21.372126 28.921804 7.438811 7.425784 8.581702 -0.162581 -22.499636 0.290791 0.000991 -51.053371 6.104117 -0.001257 145.193680 5.531421 -0.735253 56.309616 8.205308 3.192663 -51.053402 -6.108787 -0.000392 145.193466 -5.529124 0.730874 56.309589 -8.210064 -3.194125 
-12.138111 13.620281 -0.561709 0.000000 0.000000 0.000000 14.645524 -0.029608 -0.030248 25.094334 -0.106002 -0.046879 0.310862 0.311005 -0.026429 0.436419 0.000000 0.000000 -37.023296 -29.744200 -9.612916 -21.663063 -28.914759 7.431259 -11.130760 -6.365574 -0.027932 19.497721 -0.292930 0.001118 37.800072 28.994776 -10.093474 21.372126 28.921804 7.438811 7.425784 8.581702 -0.162581 -22.499636 0.290791 0.000991 -51.053371 6.104117 -0.001257 145.193680 5.531421 -0.735253 56.309616 8.205308 3.192663 -51.053402 -6.108787 -0.000392 145.193466 -5.529124 0.730874 56.309593 -8.210065 -3.194125 
-12.138111 13.620281 -0.561709 0.000000 0.000000 0.000000 14.645524 -0.029608 -0.030248 25.094334 -0.106002 -0.046879 0.000000 0.000000 0.000000 0.000000 0.000000 0.000000 -37.023296 -29.744200 -9.612916 -21.663063 -28.914759 7.431259 -11.130760 -6.365574 -0.027932 19.497721 -0.292930 0.001118 37.800072 28.994776 -10.093474 21.372126 28.921804 7.438811 7.425784 8.581702 -0.162581 -22.499636 0.290791 0.000991 -51.053371 6.104117 -0.001257 145.193680 5.531421 -0.735253 56.309616 8.205308 3.192663 -51.053402 -6.108787 -0.000392 145.193466 -5.529124 0.730874 56.309586 -8.210064 -3.194125 
-12.138111 13.620281 -0.561709 0.000000 0.000000 0.000000 18.437296 -0.029458 -0.030701 20.509649 -0.106700 -0.046757 -4.585649 0.000000 0.000000 -5.967458 0.000000 0.000000 -32.841633 -29.178204 -6.325053 -23.640079 -30.701099 8.400303 -13.159099 -7.621545 -0.273377 21.210541 0.167849 0.668283 33.681885 28.321293 -6.913407 23.395746 30.869413 8.416227 7.425784 8.581702 -0.162581 -24.418583 0.031847 0.516183 -51.053371 6.104117 -0.001257 145.193680 5.531421 -0.735253 56.309616 8.205308 3.192663 -51.053402 -6.108787 -0.000392 145.193466 -5.529124 0.730874 56.309589 -8.210064 -3.194125 
-12.138111 13.620281 -0.561709 0.000000 0.000000 0.000000 22.241617 -0.029278 -0.031143 15.902711 -0.107389 -0.046579 -9.193569 0.000000 0.000000 -11.984373 0.000000 0.000000 -28.725697 -28.405653 -3.110117 -25.693462 -32.459248 9.461922 -15.201932 -8.869679 -0.564838 22.930109 0.608804 1.349523 29.636721 27.449869 -3.815032 25.504753 32.788219 9.497252 7.425784 8.581702 -0.162581 -26.341555 -0.209904 1.040245 -51.053371 6.104117 -0.001257 145.193680 5.531421 -0.735253 56.309616 8.205308 3.192663 -51.053402 -6.108787 -0.000392 145.193466 -5.529124 0.730874 56.309589 -8.210064 -3.194125 
-12.138111 13.620281 -0.561709 0.000000 0.000000 0.000000 26.050138 -0.029069 -0.031573 11.288301 -0.108063 -0.046345 -13.808966 0.000000 0.000000 -18.017963 0.000000 0.000000 -24.702536 -27.436174 0.004868 -27.828302 -34.183998 10.620961 -17.259491 -10.107226 -0.902515 24.655464 1.029198 2.043955 25.688837 26.390873 -0.822606 27.705803 34.672150 10.688236 7.425784 8.581702 -0.162581 -28.267298 -0.433989 1.572302 -51.053371 6.104117 -0.001257 145.193680 5.531421 -0.735253 56.309616 8.205308 3.192663 -51.053402 -6.108787 -0.000392 145.193466 -5.529124 0.730874 56.309593 -8.210065 -3.194125 
-12.138111 13.620281 -0.561709 0.000000 0.000000 0.000000 29.854450 -0.028832 -0.031988 6.681359 -0.108715 -0.046059 -18.416887 0.000000 0.000000 -24.034883 0.000000 0.000000 -20.557468 -26.770290 3.251446 -30.049688 -35.869911 11.882266 -19.331945 -11.331446 -1.286486 26.385572 1.428356 2.750644 21.609934 25.622555 2.312676 30.005680 36.514778 11.995650 7.425784 8.581702 -0.162581 -30.194504 -0.639998 2.111439 -51.053371 6.104117 -0.001257 145.193680 5.531421 -0.735253 56.309616 8.205308 3.192663 -51.053402 -6.108787 -0.000392 145.193466 -5.529124 0.730874 56.309586 -8.210064 -3.194125 
-12.138111 13.620281 -0.561709 0.000000 0.000000 0.000000 33.646225 -0.028569 -0.032385 2.096676 -0.109339 -0.045723 -23.002533 0.000000 0.000000 -30.002340 0.000000 0.000000 -16.488287 -25.899080 6.414672 -32.362583 -37.511341 13.250560 -21.419376 -12.539607 -1.716697 28.119373 1.805668 3.468607 17.612097 24.657663 5.357841 32.411182 38.309387 13.425989 7.425784 8.581702 -0.162581 -32.121883 -0.827587 2.656721 -51.053371 6.104117 -0.001257 145.193680 5.531421 -0.735253 56.309616 8.205308 3.192663 -51.053402 -6.108787 -0.000392 145.193466 -5.529124 0.730874 56.309589 -8.210064 -3.194125 
-12.138111 13.620281 -0.561709 0.000000 0.000000 0.000000 33.225792 -0.028599 -0.032342 2.604535 -0.109271 -0.045763 -22.494572 0.000000 0.000000 -29.342718 0.000000 0.000000 -16.917974 -26.037222 6.087123 -32.100929 -37.331341 13.093102 -21.186701 -12.406244 -1.666618 27.926586 1.764841 3.388309 18.033146 24.804213 5.044448 32.138477 38.112572 13.260794 7.425784 8.581702 -0.162581 -31.907764 -0.807663 2.595860 -51.053371 6.104117 -0.001257 145.193680 5.531421 -0.735253 56.309616 8.205308 3.192663 -51.053402 -6.108787 -0.000392 145.193466 -5.529124 0.730874 56.309589 -8.210064 -3.194125 
-12.138111 13.620281 -0.561709 0.000000 0.000000 0.000000 32.805115 -0.028630 -0.032299 3.112827 -0.109203 -0.045802 -21.986172 0.000000 0.000000 -28.682150 0.000000 0.000000 -17.349310 -26.173243 5.757843 -31.840450 -37.150719 12.937013 -20.954205 -12.272652 -1.617107 27.733824 1.723738 3.308137 18.455824 24.948746 4.729312 31.867157 37.915092 13.097187 7.425784 8.581702 -0.162581 -31.693640 -0.787508 2.535066 -51.053371 6.104117 -0.001257 145.193680 5.531421 -0.735253 56.309616 8.205308 3.192663 -51.053402 -6.108787 -0.000392 145.193466 -5.529124 0.730874 56.309593 -8.210065 -3.194125 
-12.138111 13.620281 -0.561709 0.000000 0.000000 0.000000 32.384209 -0.028659 -0.032255 3.621532 -0.109135 -0.045840 -21.477360 0.000000 0.000000 -28.020653 0.000000 0.000000 -17.782263 -26.307100 5.426849 -31.581152 -36.969498 12.782290 -20.721899 -12.138836 -1.568165 27.541096 1.682359 3.228096 18.880119 25.091249 4.412453 31.597187 37.716938 12.935151 7.425784 8.581702 -0.162581 -31.479485 -0.767123 2.474337 -51.053371 6.104117 -0.001257 145.193680 5.531421 -0.735253 56.309616 8.205308 3.192663 -51.053402 -6.108787 -0.000392 145.193466 -5.529124 0.730874 56.309586 -8.210064 -3.194125 
